<?xml version="1.0" encoding="UTF-8"?>
<svg width="24" height="24" viewBox="0 0 24 24" fill="none" xmlns="http://www.w3.org/2000/svg">
    <path d="M12 3C7.02944 3 3 7.02944 3 12C3 16.9706 7.02944 21 12 21C16.9706 21 21 16.9706 21 12C21 7.02944 16.9706 3 12 3Z" stroke="currentColor" stroke-width="2" stroke-linecap="round" stroke-linejoin="round"/>
    <path d="M12 8C10.3431 8 9 9.34315 9 11C9 11.7403 9.4022 12.3866 10 12.7324M15 11C15 9.34315 13.6569 8 12 8M15 11C15 12.6569 13.6569 14 12 14C10.3431 14 9 12.6569 9 11M15 11C15.5978 11.3458 16 11.992 16 12.7324C16 13.9815 14.9815 15 13.7324 15C13.1577 15 12.6297 14.7787 12.2322 14.4142M10 12.7324C10 13.9815 11.0185 15 12.2676 15C12.8423 15 13.3703 14.7787 13.7678 14.4142" stroke="currentColor" stroke-width="2" stroke-linecap="round" stroke-linejoin="round"/>
</svg> 